<?xml version="1.0" encoding="UTF-8"?><svg id="Layer_1" xmlns="http://www.w3.org/2000/svg" viewBox="0 0 39.5 39.43"><rect x="-4.36" y="-3.84" width="49.44" height="48.48" fill="#fefefe"/><path d="M25.97,30.08h-11.11c-.11,0-1.79-.69-2.04-.82-2.67-1.4-3.45-3.62-4.17-6.34-.93-3.51-1.57-7.19-2.27-10.75l-1.14,2.08C.27,28.33,15.18,40.2,27.97,32.97l2.27,2.95c-7.72,5.45-18.89,3.71-25.06-3.34C-2.21,24.13-1.04,11.06,7.94,4.29c.33.2.3.5.4.79,1.95,5.76,2.51,12.93,4.52,18.65.36,1.02.83,2.08,2.03,2.27,2.54.4,5.91-.3,8.55.05.43.15,2.31,3.34,2.55,4.02Z" fill="#4572c3"/><path d="M37.92,13.12c.42,1.23.76,2.52.96,3.82-.14.37-.27,1.93,0,1.19.14,1.54.15,1.8,0,3.34-.29-.24-.1.64,0,.96-.75,5.07-3.4,9.6-7.53,12.66l-6.33-9.79c-.19-.27-.19-.43,0-.48,0-.69.35-.59.91-.35-.12-.89.37-1.46,1.19-.97.33-.4.66-.36,1.01.13.65.91,3.22,4.89,3.7,5.27.45.35.47-.09.84-.25.57-.26.67.38.24.72.11.17.26.09.48-.24-.33-.26-.44-.81-.24-1.19,1.82-3.97,2.9-7.45,1.91-11.94-.04-1.02.14-1.82,1.28-2.02.65-.8,1.18-1.08,1.58-.85Z" fill="#f64004"/><path d="M17.85.46c1.26.16,2.56.16,3.82,0,5.93.45,10.57,3.65,13.85,8.36.07.53-.23,1-.72,1.19.14.63.01.66-.48.24l-.45.35c-.13.66-.38.94-.74.85-.05-.08-.18-.15-.24-.24-.02-.79-.55-1.37-1.19-1.67-2.5-2.79-6.52-5.05-10.27-5.49-1.01-.26-2.41-.17-3.34,0,0,.17-2.84.68-3.33.85-1.4.47-2.73,1.19-3.95,2.01-.46-.03-.73-3.14-1.08-3.69C12.19,1.77,14.96.68,17.85.46Z" fill="#f64004"/><path d="M24.54,14.31c.39,0,1.76.08,1.88-.03.18-.16.48-2.32,1.12-2.58.33-.13.97.44.99.52.17.53-1.29,3.93-1.61,4.72-.07.15-.15.15-.24,0-.24-.15-.44-.2-.72-.24-.38.34-.54.27-.48-.24-.2-.08-.19-.16,0-.24-1.67-.13-3.34-.21-5.02-.24l-.46-.13c-.4.4-.73.6-.97.61.17.61.85,4.11.99,4.27.12.14.56-.03.68.03.77.05,1.09.62.95,1.73.58.07.65.64.36,1.11.39.13.62.25.6.75-2.27.01-4.5.09-6.69.24-.89-.1-1.32-.47-1.67-1.32-.93-2.28-.95-5.76-1.87-8.16-.02-.4.35-.63.67-.79h11.46Z" fill="#f64004"/><path d="M14.75,6.67c.38.17.81.17,1.19,0,3.07.52,3.41,5.01.52,6.13-1.83.71-4.02-.34-4.35-2.31.17-.47.17-.97,0-1.43.18-1.21,1.42-2.25,2.63-2.39Z" fill="#f64005"/><path d="M24.54,20.76l2.39.96c.26.27.31.5.48.72.39,1.08-.89,1.12-1.65.82-.5.22-.58.67-.34,1.15l-.39.42c.02.15-.02.32,0,.48-.42-.46-.45-.51-.96-.72l-.48-.24c-.89-.26-1.77-2.88-1.19-3.58.71,0,1.44-.04,2.15,0Z" fill="#f74b13"/><path d="M36.96,10.97c.24.26-.83,1.2-.98,1.25-.08.02,1.05-1.23,1.22-.53.14.31.3.49.48.96-1.13,1.59-2.5,2.15-3.82.24-.12-.26-.34-.71-.48-.96.13-.79.45-1.34.96-1.67.15-.02.38-.24.48-.24.57-1.28,1.59.48,1.43.48-.11,0-.75-.79,0-.72.25.41.49.74.72,1.19Z" fill="#f74b13"/><path d="M22.39,20.76l1.19,3.58c-.23.17-.66.13-.96,0-.94-.34-1.51-.43-.72-1.43-1.35.41-.26-1.72-1.2-2.15h1.67Z" fill="#f34004"/><path d="M28.12,23.63l-.67.07.07.65-1.07-.72c-.2,1.44.21.46.71,1.19-.22.1-1.09.03-1.15.07-.08.07,0,.34-.04.4-.12.18-.4-.86-.95-.47-.12-.75-.5-.94.1-1.69.82-1,1.33.6,2.28-.7.35.46.49.88.72,1.19Z" fill="#f24005"/><path d="M37.68,12.64c.06.16.18.31.24.48-.7.05-.84.77-1.31,1.21-.18.17-.59.13-.78.3-.06.05-.6,1.18-.78,1.36-.16-.71-.86-2.37-1.19-3.1.93.31,1.55,1.1,2.62.59.36-.17.59-.88,1.2-.83Z" fill="#f24106"/><path d="M24.54,14.31h-11.46c3.82-.05,7.65.07,11.46,0Z" fill="#f73801"/><path d="M20.48,15.99c1.45.03,3.12.11,5.02.24.02.03,0,.17,0,.24-1.9-.29-4.47.22-6.45,0,0-.02-.29-.02-.24-.24.2-.05.64.13.72-.12.17-.51-.97-.32-.48-.83.06-.06,1.25.58,1.43.72Z" fill="#f93f0a"/><path d="M22.63,24.34c.31.02.66-.04.96,0,.25.04.34.18.48.24-2.58-.21-5.6.29-8.12,0,.26-.35.59-.34.98-.34,1.86,0,3.85,0,5.71.1Z" fill="#f53501"/><path d="M25.26,17.18c.45-.41,1.13.17,1.19.72-.11.26-.16.46-.24.72-.24.19-.47.35-.72.48-.29-.03-.29-.03-.48-.24v-.96c.07-.25.16-.47.24-.72Z" fill="#fa3f0b"/><path d="M36.24,9.78v.72c-.54-.46-.79-.44-1.43-.48-.06-.57.2-.97.72-1.19.22.32.44.5.72.96Z" fill="#f24108"/><path d="M37.2,11.69c-.85.04-.9,1.72-1.91.6l1.67-1.31c.13.25.15.52.24.72Z" fill="#ef4108"/><path d="M26.93,21.72c-.58.42-1.93-.51-2.39-.96,1.48.09,1.35-.13,2.39.96Z" fill="#ef4811"/><path d="M25.97,16.7c.28-.1.62-.06.72.24h.24c-.17.41-.36.69-.48.96h-.32s-.88-.72-.88-.72c.06-.2.22-.58.24-.72.31.05.39.21.48.24Z" fill="#f24812"/><path d="M34.33,10.25c-.38.53-.35,1.39-.96,1.67-.09-.16-.17-.36-.24-.48.33-.22.6-1.31.75-1.42.16-.12.42.23.45.23Z" fill="#f24108"/><path d="M31.71,9.54c1.16-.44.77.36.85.48.25.37.91-.02.34,1.19-.31-.47-.85-1.29-1.19-1.67Z" fill="#f24108"/><path d="M18.09,4.04s-.15.05-.24-.12c-.1-.2,3.29-.09,3.71-.12l-.12.24c-1.04-.12-2.27.09-3.34,0Z" fill="#f63400"/><path d="M21.67.46c-1.02.4-2.85.4-3.82,0,1.1-.08,2.72-.08,3.82,0Z" fill="#f63301"/><path d="M33.38,29.12c-.17.34-.33.42-.48.24,0-.15-.25-.68-.24-.72.07-.35.39-.53.48-.72.5.56.44.6.24,1.19Z" fill="#f7400b"/><path d="M38.87,18.13c-.09,1.33-.59-.59,0-1.19.05.36-.03.81,0,1.19Z" fill="#f73600"/><path d="M25.02,18.85c-.54-.6-.09-.61,0-.96.24.31.24.64,0,.96Z" fill="#f24812"/><path d="M12.12,10.49c-.05-.31-.05-1.11,0-1.43.38.23.39,1.19,0,1.43Z" fill="#f73101"/><path d="M26.21,18.61c-.13.4.27.59-.72.48-.11-.64.15-.49.72-.48Z" fill="#f24812"/><path d="M38.87,21.48c-.03.31.04.66,0,.96-.61-.61-.05-2.21,0-.96Z" fill="#f53501"/><path d="M15.94,6.67c-.16.38-1.04.38-1.19,0,.3-.03.91-.05,1.19,0Z" fill="#f33400"/><path d="M34.1,29.6c.06.08.5-.3.71-.24l-1.19.47.24-.95c.47-.08.13.58.24.72Z" fill="#f34102"/><path d="M33.38,29.12c-.14.42-.19.68-.6.95-.37-.15.12-.61.12-.72l.48-.24Z" fill="#f34102"/><path d="M34.57,8.58v.95c-.13.29-.61-.82-.48-.95h.48Z" fill="#f24108"/><path d="M20.48,15.99c1.3-.06,3.16-.12,4.43,0,.31.03.41-.1.59.25h-5.73c-.06-.4.45-.23.72-.24Z" fill="#f43b01"/><path d="M25.97,16.7c.5-.35.83-.42.72.24-.35.14-.57-.19-.72-.24Z" fill="#f24b0f"/><path d="M24.51,21.74c.17.19.03,1.12-.45,1.17l-.48-1.43c.22.19.88.21.93.26Z" fill="#f04107"/><path d="M35.53,10.97v.35c-.95,1.31-1.52-.49,0-.35Z" fill="#f04209"/></svg>